<svg id="Layer_1" data-name="Layer 1" xmlns="http://www.w3.org/2000/svg" viewBox="0 0 512 512"><title>icons_MSNS</title><path d="M256.89,34.5h-1.78A41.86,41.86,0,0,0,213.3,76.31V84c-55.69,18.06-96.07,70.41-96.07,132V333.61a10.47,10.47,0,0,1-10.46,10.46h-0.53a42.43,42.43,0,0,0-42.38,42.38v0.64a42.43,42.43,0,0,0,42.38,42.38H206.29c2.18,26,24,48,50.53,48h0.81c26.54,0,48.35-22.05,50.53-48H411.1c22.16,0,37-17,37-42.38v-0.64c0-25.35-14.89-42.38-37-42.38h-0.53a10.47,10.47,0,0,1-10.46-10.46V217.33c0-63.83-42.92-117.8-101.41-134.65V76.31A41.86,41.86,0,0,0,256.89,34.5ZM234.65,76.31a20.48,20.48,0,0,1,20.46-20.46h1.78a20.49,20.49,0,0,1,20.46,20.46v2A140.3,140.3,0,0,0,260,77.2H256a139.08,139.08,0,0,0-21.38,1.65V76.31Zm23,379.84h-0.81c-14.76,0-27-12.5-29.08-26.69h59C284.63,443.65,272.39,456.15,257.63,456.15Zm153.16-90.73h0.32c14.16,0,15.69,14.7,15.69,21v0.64c0,6.32-1.53,21-15.69,21H106.23a21.06,21.06,0,0,1-21-21v-0.64a21.06,21.06,0,0,1,21-21H410.78Zm-32-148.08V333.61a31.6,31.6,0,0,0,1.8,10.46H136.77a31.6,31.6,0,0,0,1.8-10.46V216A117.58,117.58,0,0,1,256,98.55H260A118.91,118.91,0,0,1,378.76,217.33Z"/></svg>