<svg id="Layer_1" data-name="Layer 1" xmlns="http://www.w3.org/2000/svg" viewBox="0 0 512 512"><title>icons_MSNS</title><path d="M261.63,442.34c-0.31.11-.62,0.2-0.94,0.29a16.65,16.65,0,0,1-4.63.75H256a16.62,16.62,0,0,1-4.63-.75c-0.32-.09-0.63-0.18-0.94-0.29a16.9,16.9,0,0,1-4.21-2.19c-0.06,0-.14-0.05-0.2-0.1L98.7,316.19a17.13,17.13,0,0,1-3.61-23.84,16.87,16.87,0,0,1,23.69-3.63L239.06,392.59v-341a16.94,16.94,0,1,1,33.89,0v341L393.22,288.71a17,17,0,0,1,27,13.73,17.06,17.06,0,0,1-6.9,13.75L266,440.06c-0.06,0-.14.05-0.2,0.1A16.9,16.9,0,0,1,261.63,442.34Z"/><path d="M448,443.5H64a17,17,0,1,0,0,34H448A17,17,0,1,0,448,443.5Z"/></svg>