<?xml version="1.0" encoding="utf-8"?>
<!-- Generator: Adobe Illustrator 17.0.0, SVG Export Plug-In . SVG Version: 6.00 Build 0)  -->
<!DOCTYPE svg PUBLIC "-//W3C//DTD SVG 1.1//EN" "http://www.w3.org/Graphics/SVG/1.1/DTD/svg11.dtd" [
	<!ENTITY ns_flows "http://ns.adobe.com/Flows/1.0/">
	<!ENTITY ns_extend "http://ns.adobe.com/Extensibility/1.0/">
	<!ENTITY ns_ai "http://ns.adobe.com/AdobeIllustrator/10.0/">
	<!ENTITY ns_graphs "http://ns.adobe.com/Graphs/1.0/">
]>
<svg version="1.1" id="Layer_1" xmlns:x="&ns_extend;" xmlns:i="&ns_ai;" xmlns:graph="&ns_graphs;"
	 xmlns="http://www.w3.org/2000/svg" xmlns:xlink="http://www.w3.org/1999/xlink" xmlns:a="http://ns.adobe.com/AdobeSVGViewerExtensions/3.0/"
	 x="0px" y="0px" width="512px" height="512px" viewBox="0 0 512 512" enable-background="new 0 0 512 512" xml:space="preserve">
<title>exclamatory_icon</title>
<path fill="#010101" d="M257,478.5c-122.19,0-221.5-99.31-221.5-221.5S134.81,35.5,257,35.5S478.5,134.81,478.5,257
	S379.19,478.5,257,478.5z M257,65.63C151.55,65.63,65.63,151.55,65.63,257S151.55,448.37,257,448.37S448.37,362.45,448.37,257
	S362.45,65.63,257,65.63z M257,337.9c11.333-0.067,20.574,9.065,20.641,20.398c0.033,5.544-2.179,10.865-6.131,14.752
	c-4.46,3.91-8.93,6.14-13.95,6.14c-5.278-0.125-10.293-2.332-13.95-6.14c-4.46-3.91-6.14-8.93-6.14-14.51
	c-0.003-5.477,2.212-10.723,6.14-14.54C246.4,339.57,251.42,337.9,257,337.9z M271.51,308.9h-28.46V135.37h28.45v173.52
	L271.51,308.9z"/>
</svg>
