<?xml version="1.0" encoding="utf-8"?>
<!-- Generator: Adobe Illustrator 19.1.0, SVG Export Plug-In . SVG Version: 6.00 Build 0)  -->
<svg version="1.1" id="Layer_1" xmlns="http://www.w3.org/2000/svg" xmlns:xlink="http://www.w3.org/1999/xlink" x="0px" y="0px"
	 viewBox="0 0 512 512" enable-background="new 0 0 512 512" xml:space="preserve">
<g>
	<path fill="#010101" d="M334.2,60.8h93.3l-203.3,203c-0.1,0.1-0.2,0.1-0.2,0.2c-5.6,5.7-5.5,15,0.2,20.6c0,0,0,0,0.1,0.1
		c5.5,5.5,14.5,5.5,19.9-0.1l203.3-203v93.2c0.2,7.5,6.3,13.6,13.8,13.8c7.8,0.2,14.3-6,14.5-13.8V46.7c0-8.3-6.7-15-13.3-14.1
		H334.2c-7.8,0-14.1,6.3-14.1,14.1S326.4,60.8,334.2,60.8z"/>
	<path fill="#010101" d="M466.9,238.7c-8.8,0-16,7.2-16,16v133.1c0,34.8-28.3,63.1-63.1,63.1H124.3c-34.8,0-63.1-28.3-63.1-63.1
		V124.3c0-34.8,28.3-63.1,63.1-63.1h132.4c8.8,0,16-7.2,16-16s-7.2-16-16-16H124.3c-52.5,0-95.1,42.7-95.1,95.1v263.5
		c0,52.5,42.7,95.1,95.1,95.1h263.4c52.5,0,95.1-42.7,95.1-95.1V254.6C482.9,245.8,475.7,238.7,466.9,238.7z"/>
</g>
</svg>
