<svg id="Layer_1" data-name="Layer 1" xmlns="http://www.w3.org/2000/svg" viewBox="0 0 512 512"><title>icons_MSNS</title><path d="M435.24,78.55L215,298.76V460.24c0,16.15,11,22,24.43,13.07l39.23-26.16c13.45-8.93,24.43-29.48,24.43-45.63V284.08L456.73,130.46C485.27,101.89,475.61,78.55,435.24,78.55Z"/><path d="M373.76,51.92a28.64,28.64,0,0,0-5.84-8.81,29.33,29.33,0,0,0-41.52,0L291,78.55H82.91c-40.37,0-50.06,23.34-21.49,51.91l88.82,88.82L47.47,322A29.36,29.36,0,1,0,89,363.56l20.76-20.76L367.92,84.63A29.18,29.18,0,0,0,373.76,51.92Z"/></svg>