<svg id="Layer_1" data-name="Layer 1" xmlns="http://www.w3.org/2000/svg" viewBox="0 0 512 512"><title>icons_MSNS</title><path d="M255.94,34.5C133.61,34.5,34.5,133.73,34.5,256.06S133.61,477.5,255.94,477.5,477.5,378.39,477.5,256.06,378.39,34.5,255.94,34.5Zm19,353.87c-4.52,4.06-10.68,6.15-18.57,6.15s-14-2.09-18.57-6.15a19.93,19.93,0,0,1-6.73-15.2,19.57,19.57,0,0,1,6.62-15c4.41-4.18,10.68-6.27,18.68-6.27s14.27,2.09,18.68,6.15a19.63,19.63,0,0,1,6.62,15.09A19.89,19.89,0,0,1,275,388.37Zm13.46-223L276.83,291.57c-0.58,6.5-2.79,11.61-6.5,15.2s-8.59,5.34-14.39,5.34a20,20,0,0,1-14.27-5.34c-3.72-3.6-5.92-8.7-6.5-15.2L223.33,165.42c-0.46-6.38-.81-10.56-0.81-12.65,0-10.56,3.25-19.15,9.63-25.53s14.27-9.75,23.79-9.75a31.79,31.79,0,0,1,23.79,9.86c6.5,6.5,9.75,14.74,9.75,24.61C289.48,154,289.14,158.57,288.44,165.42Z"/></svg>