<svg id="Layer_1" data-name="Layer 1" xmlns="http://www.w3.org/2000/svg" viewBox="0 0 512 512"><title>icons_MSNS</title><path d="M256,190.72c-12.36,0-22.35-8.31-22.35-18.57V53.07c0-10.26,10-18.57,22.35-18.57s22.36,8.31,22.36,18.57V172.15C278.36,182.42,268.36,190.72,256,190.72Z"/><path d="M256,477.5c112.52,0,204.08-90.66,204.08-202.05,0-75.5-42.16-141.29-104.29-175.94-9.6-4.22-11.68,3.72-11.68,3.72v35.6s-0.18,4.47,3,7.25c41.27,28.54,68.31,75.86,68.31,129.37,0,87-71.49,157.78-159.37,157.78S96.63,362.45,96.63,275.45c0-53.51,27-100.83,68.32-129.37,3.13-2.77,3-7.25,3-7.25v-35.6s-2.08-7.93-11.68-3.72C94.08,134.16,51.92,199.95,51.92,275.45,51.92,386.84,143.48,477.5,256,477.5Z"/></svg>