<svg id="Layer_1" data-name="Layer 1" xmlns="http://www.w3.org/2000/svg" viewBox="0 0 512 512">
    <path
        d="M335.78,278.18C335.24,302.11,256,324.92,256,324.92s-79.25-22.81-79.78-46.74A131.34,131.34,0,0,0,56.9,408.91c0,72.51,58.84,68.55,131.42,68.55H323.67c72.59,0,131.43,4,131.43-68.55A131.35,131.35,0,0,0,335.78,278.18ZM388,432.42a8.11,8.11,0,0,1-8.12,8.1H324.68a8.11,8.11,0,0,1-8.11-8.1v-34a8.11,8.11,0,0,1,8.11-8.11h21.23c0-.1,0-0.19,0-0.29a6.39,6.39,0,0,1,12.77,0c0,0.1,0,.19,0,0.29h21.23a8.11,8.11,0,0,1,8.12,8.11v34Z"/>
    <path
        d="M256,295.33c60.52,0,109.59-90.9,109.59-151.36a109.59,109.59,0,0,0-219.18,0C146.45,204.43,195.52,295.33,256,295.33Zm-95-136.22c5.11-44.09,15.17-46.26,15.17-46.26,16.37,49.77,143.77,9.3,143.77,9.3,32.55-2.47,30.19,42.23,30.16,42.74-8.61,51-47.48,113.29-94.13,113.29-48.42,0-88.46-67.12-95-119.07h0Z"/><path d="M376.46,404.93H362.14a2.57,2.57,0,1,0,0,5.14h14.33A2.57,2.57,0,1,0,376.46,404.93Z"/>
    <path d="M376.46,419.54H362.14a2.57,2.57,0,1,0,0,5.14h14.33A2.57,2.57,0,1,0,376.46,419.54Z"/>
    <path d="M338.9,416.47c0,1.15-3.83,4-3.83,4s-3.81-2.84-3.83-4a6.32,6.32,0,0,0-5.73,6.29c0,3.48,2.83,3.29,6.32,3.29h6.51c3.49,0,6.32.19,6.32-3.29A6.32,6.32,0,0,0,338.9,416.47Z"/>
    <polygon points="339.3 410.04 339.3 410.05 339.3 410.05 339.3 410.04"/>
    <path
        d="M335.06,417.29c2.91,0,5.27-4.37,5.27-7.27a5.26,5.26,0,0,0-10.53,0C329.8,412.93,332.16,417.29,335.06,417.29Zm-3.83-8.77c0.78,2.39,6.91.44,6.91,0.44,1.57-.12,1.45,2,1.45,2.06-0.41,2.45-2.28,5.44-4.53,5.44s-4.25-3.22-4.56-5.72C330.75,408.63,331.23,408.53,331.23,408.53Z"/>
</svg>
