<svg id="Layer_1" data-name="Layer 1" xmlns="http://www.w3.org/2000/svg" viewBox="0 0 512 512">
    <path
        d="M155.66,211.29a19.35,19.35,0,0,0-27.35-.35l-24.16,23.52a21.43,21.43,0,0,1-3.29,3.21A157.1,157.1,0,0,1,382.91,153.1a17.22,17.22,0,1,0,27.45-20.79A191.62,191.62,0,0,0,228.68,58.56C137.89,72.39,70.82,147,66.21,237.66a7.86,7.86,0,0,1-1.12-1.42L39.31,209.8a19.34,19.34,0,1,0-27.71,27L69,295.68a19.34,19.34,0,0,0,27.35.34l58.93-57.38A19.33,19.33,0,0,0,155.66,211.29ZM84,263.56l0.68,0A0.41,0.41,0,0,1,84,263.56Z"/>
        <path
        d="M500.39,262.79L443,203.91a19.35,19.35,0,0,0-27.35-.34l-58.94,57.38a19.34,19.34,0,1,0,27,27.71l24.18-23.52a19,19,0,0,1,3-2.94,157.11,157.11,0,0,1-282,83.37,17.21,17.21,0,1,0-27.45,20.78,191.61,191.61,0,0,0,181.69,73.75c90.56-13.8,157.52-88.11,162.4-178.46a8.67,8.67,0,0,1,1.42,1.73l25.78,26.43A19.35,19.35,0,1,0,500.39,262.79Z"/>
    </svg>
