<svg id="Layer_1" data-name="Layer 1" xmlns="http://www.w3.org/2000/svg" viewBox="0 0 512 512"><title>icons_MSNS</title><path d="M420.19,62.66A28.21,28.21,0,0,0,392,34.5H120A28.22,28.22,0,0,0,91.83,62.66l-24,177.39h0.06V412.74H83.36V477.5h57.55V412.74h230.2V477.5h57.55V412.74h15.42V240.06h0.07Zm-218.13-8H310V86.25H202.06V54.67Zm-62.3,307.7a36,36,0,1,1,36-36A36,36,0,0,1,139.77,362.37Zm232.46,0a36,36,0,1,1,36-36A35.94,35.94,0,0,1,372.22,362.37ZM103.82,232.3l24-125.89H384.24l24,125.89H103.82Z"/></svg>