<svg id="Layer_1" data-name="Layer 1" xmlns="http://www.w3.org/2000/svg" viewBox="0 0 512 512"><title>icons_MSNS</title><path d="M339.2,366.75H450.12L339.2,477.5V366.75Zm-27.73-13.84V477.5H89.61a27.7,27.7,0,0,1-27.73-27.69V62.19A27.7,27.7,0,0,1,89.61,34.5H422.39a27.69,27.69,0,0,1,27.73,27.69V339.06H325.33A13.85,13.85,0,0,0,311.46,352.91ZM117.34,131.41a13.85,13.85,0,0,0,13.87,13.84H380.79a13.84,13.84,0,1,0,0-27.69H131.21A13.85,13.85,0,0,0,117.34,131.41Zm0,83.06a13.85,13.85,0,0,0,13.87,13.84H380.79a13.84,13.84,0,1,0,0-27.69H131.21A13.85,13.85,0,0,0,117.34,214.47Zm263.45,96.91a13.84,13.84,0,1,0,0-27.69H131.21a13.84,13.84,0,1,0,0,27.69H380.79Z"/></svg>