<svg id="Layer_1" data-name="Layer 1" xmlns="http://www.w3.org/2000/svg" viewBox="0 0 512 512"><title>icons_MSNS</title><path d="M256.74,80.53C134.31,80,34.5,179.32,34.5,301.71A223.38,223.38,0,0,0,67.44,418.2,28.11,28.11,0,0,0,91,431.47H421a27.62,27.62,0,0,0,23.6-13.27,223,223,0,0,0,32.94-116C477,179.32,379.16,81,256.74,80.53Zm147,301.79c-3.93,6.39-10.82,9.34-18.19,9.34H126.94c-7.37,0-14.26-2.95-18.19-9.34-16.23-26.54-26.06-57.51-26.06-90.93,0-95.85,78.18-173.51,174.05-173s172.58,77.17,172.58,173A173.35,173.35,0,0,1,403.75,382.32Z"/><path d="M255.75,167.53A118.83,118.83,0,0,0,232.65,170a5.5,5.5,0,1,0,2,10.81,102.63,102.63,0,0,1,21.14-2c61.46,0,111.61,50.14,111.61,111.58a111.45,111.45,0,0,1-15.24,56,5.55,5.55,0,0,0,2,7.37,5.35,5.35,0,0,0,2.46.49,5.16,5.16,0,0,0,4.43-2.46A122.54,122.54,0,0,0,255.75,167.53Z"/><path d="M169.71,202.92a122,122,0,0,0-35.89,86.51,124,124,0,0,0,15.24,59,5.26,5.26,0,0,0,4.43,2.95,3.69,3.69,0,0,0,2.46-.49,5.42,5.42,0,0,0,2-7.37,112.79,112.79,0,0,1-13.77-53.58,110.75,110.75,0,0,1,32.45-78.64,5.34,5.34,0,0,0,0-7.37A4.19,4.19,0,0,0,169.71,202.92Z"/><path d="M195.28,165.56a1.06,1.06,0,0,0-2,.49c5.9,31.46,30.48,167.61,35.4,180.88a28.82,28.82,0,0,0,36.88,17.2c15.24-5.41,22.62-21.63,17.21-36.86C277.88,314,210.52,193.09,195.28,165.56Z"/></svg>