<svg xmlns="http://www.w3.org/2000/svg" viewBox="0 0 512 512">
<path d="M339.2,366.75H450.12L339.2,477.5V366.75Zm-27.73-13.84V477.5H89.61a27.7,27.7,0,0,1-27.73-27.69V62.19A27.7,27.7,0,0,1,89.61,34.5H422.39a27.69,27.69,0,0,1,27.73,27.69V339.06H325.33A13.85,13.85,0,0,0,311.46,352.91Z"/><path
        fill="#ffffff"
        d="M149.31,344.14h0c8.83,0,23.88-6,52.78-57.16a405.61,405.61,0,0,1,53-19.84A328.75,328.75,0,0,1,294.2,258c21.17,13,45.77,21.32,63.29,21.32,19.37,0,21.37-11,21.52-14.31a16.4,16.4,0,0,0-4.74-12.31c-7-7.35-21.34-11.08-42.55-11.08A235.79,235.79,0,0,0,297,244.48C284.39,236.15,274,226.32,266.75,216a198.55,198.55,0,0,1-17.88-31.63c13.83-40.5,16.52-67.1,8-79.08A17,17,0,0,0,242.41,98a18.39,18.39,0,0,0-16.05,8.68c-11,16.87-2.46,52.09,8.59,78.19-5.15,14.54-11.58,30.21-18.66,45.49-8,17.24-15.88,32.91-23.48,46.62-21.7,10.27-56.3,29.36-59.58,47.94a15.63,15.63,0,0,0,4.59,14.27A16,16,0,0,0,149.31,344.14Zm182.42-89.53c24.52,0,31.6,5.41,33.18,7.07a3.54,3.54,0,0,1,1.15,2.93c-0.25.38-2.41,1.8-8.57,1.8-9.61,0-24.82-3.51-41.18-11.15C321.7,254.83,326.84,254.61,331.72,254.61ZM237.2,113.79a5.62,5.62,0,0,1,5.21-2.81,4.13,4.13,0,0,1,3.89,1.79c3.8,5.34,4.05,21.82-5,52.49C233,140.28,232.59,120.85,237.2,113.79Zm-9.15,122c5.21-11.26,10.09-22.73,14.38-33.84l0.17,0.39,0.27-.79a207.48,207.48,0,0,0,13.24,21.8,116.64,116.64,0,0,0,22.84,24l-1.3.2,0.55,0.36c-8.88,1.88-17.85,4.16-26.8,6.81-13.07,3.88-26.26,8.51-38.91,13.65l0.41-.73-0.51.24C217.54,257.93,222.78,247.2,228.05,235.82ZM146,327.19c1.07-6.07,12.18-16.85,34.51-29.33-20,31.49-29.32,33.32-31.2,33.32a3.05,3.05,0,0,1-2.32-1.13A2.84,2.84,0,0,1,146,327.19Z"/></svg>
