<?xml version="1.0" encoding="utf-8"?>
<!-- Generator: Adobe Illustrator 17.0.0, SVG Export Plug-In . SVG Version: 6.00 Build 0)  -->
<!DOCTYPE svg PUBLIC "-//W3C//DTD SVG 1.1//EN" "http://www.w3.org/Graphics/SVG/1.1/DTD/svg11.dtd" [
	<!ENTITY ns_flows "http://ns.adobe.com/Flows/1.0/">
	<!ENTITY ns_extend "http://ns.adobe.com/Extensibility/1.0/">
	<!ENTITY ns_ai "http://ns.adobe.com/AdobeIllustrator/10.0/">
	<!ENTITY ns_graphs "http://ns.adobe.com/Graphs/1.0/">
]>
<svg version="1.1" id="Layer_1" xmlns:x="&ns_extend;" xmlns:i="&ns_ai;" xmlns:graph="&ns_graphs;"
	 xmlns="http://www.w3.org/2000/svg" xmlns:xlink="http://www.w3.org/1999/xlink" xmlns:a="http://ns.adobe.com/AdobeSVGViewerExtensions/3.0/"
	 x="0px" y="0px" width="512px" height="512px" viewBox="0 0 512 512" enable-background="new 0 0 512 512" xml:space="preserve">
<g>
	<path fill="#010101" d="M424.56,140.84v292.55c-0.153,24.298-19.812,43.957-44.11,44.11h-248.9
		c-24.298-0.153-43.957-19.812-44.11-44.11V78.61c0.153-24.298,19.812-43.957,44.11-44.11h183.89L424.56,140.84z M400.88,151.06
		l-95.19-92.88v63.15c0.114,16.366,13.354,29.606,29.72,29.72h65.47V151.06z"/>
	<path fill="#FFFFFF" d="M257.84,434.26l-0.31,0.09c-0.49,0.151-0.998,0.231-1.51,0.24l0,0c-0.512-0.008-1.021-0.089-1.51-0.24
		l-0.31-0.09c-0.491-0.171-0.956-0.41-1.38-0.71h-0.06L204.57,393c-2.469-1.835-2.995-5.317-1.18-7.8
		c1.793-2.466,5.245-3.012,7.711-1.219c0.013,0.01,0.026,0.019,0.039,0.029l39.33,34v-92.34c0-3.06,2.48-5.54,5.54-5.54
		c3.06,0,5.54,2.48,5.54,5.54V418l39.33-34c2.466-1.812,5.933-1.281,7.745,1.185c0.704,0.958,1.081,2.117,1.075,3.305
		c0.005,1.774-0.834,3.445-2.26,4.5l-48.15,40.5h-0.06C258.806,433.812,258.338,434.072,257.84,434.26z"/>
	<path fill="#FFFFFF" d="M157.46,198c7.173-1.09,14.425-1.581,21.68-1.47c9.9,0,17,1.89,21.69,5.68
		c4.947,3.994,7.753,10.064,7.59,16.42c0,6.95-2.21,12.95-6.53,16.84c-5.47,5.05-13.58,7.47-23.05,7.47
		c-1.836,0.044-3.672-0.097-5.48-0.42V268h-15.9V198z M173.35,230.21c1.768,0.342,3.57,0.483,5.37,0.42
		c8.53,0,13.79-4.32,13.79-11.47c0-6.53-4.53-10.42-12.64-10.42c-2.186-0.074-4.374,0.104-6.52,0.53v21L173.35,230.21z"/>
	<path fill="#FFFFFF" d="M228.26,198.06c7.142-1.077,14.357-1.605,21.58-1.58c13.59,0,22.42,2.53,29.16,7.58
		c7.37,5.47,12,14.21,12,26.74c0,13.58-4.95,23-11.68,28.74c-7.47,6.21-19,9.16-32.85,9.16c-6.087,0.054-12.17-0.297-18.21-1.05
		L228.26,198.06L228.26,198.06z M244.26,255.86c1.846,0.28,3.714,0.387,5.58,0.32c14.63,0.11,24.22-7.9,24.22-24.85
		c0-14.74-8.63-22.53-22.53-22.53c-2.439-0.048-4.876,0.163-7.27,0.63V255.86L244.26,255.86z"/>
	<path fill="#FFFFFF" d="M311.27,197h43.26v13.16h-27.25v16.21h25.48v13.06h-25.48V268h-16v-71H311.27z"/>
</g>
</svg>
