<?xml version="1.0" encoding="utf-8"?>
<!-- Generator: Adobe Illustrator 17.0.0, SVG Export Plug-In . SVG Version: 6.00 Build 0)  -->
<!DOCTYPE svg PUBLIC "-//W3C//DTD SVG 1.1//EN" "http://www.w3.org/Graphics/SVG/1.1/DTD/svg11.dtd" [
	<!ENTITY ns_extend "http://ns.adobe.com/Extensibility/1.0/">
	<!ENTITY ns_ai "http://ns.adobe.com/AdobeIllustrator/10.0/">
	<!ENTITY ns_graphs "http://ns.adobe.com/Graphs/1.0/">
	<!ENTITY ns_vars "http://ns.adobe.com/Variables/1.0/">
	<!ENTITY ns_imrep "http://ns.adobe.com/ImageReplacement/1.0/">
	<!ENTITY ns_sfw "http://ns.adobe.com/SaveForWeb/1.0/">
	<!ENTITY ns_custom "http://ns.adobe.com/GenericCustomNamespace/1.0/">
	<!ENTITY ns_adobe_xpath "http://ns.adobe.com/XPath/1.0/">
]>
<svg version="1.1" id="Layer_1" xmlns:x="&ns_extend;" xmlns:i="&ns_ai;" xmlns:graph="&ns_graphs;"
	 xmlns="http://www.w3.org/2000/svg" xmlns:xlink="http://www.w3.org/1999/xlink" x="0px" y="0px" width="512px" height="512px"
	 viewBox="0 0 512 512" enable-background="new 0 0 512 512" xml:space="preserve">
<metadata>
	<sfw  xmlns="&ns_sfw;">
		<slices></slices>
		<sliceSourceBounds  width="443" x="34.5" height="387.64" y="-450.82" bottomLeftOrigin="true"></sliceSourceBounds>
	</sfw>
</metadata>
<path fill="#010101" d="M328,378.83H184c-6.122,0-11.085,4.963-11.085,11.085c0,6.122,4.963,11.085,11.085,11.085h144
	c6.122,0,11.085-4.963,11.085-11.085C339.085,383.793,334.122,378.83,328,378.83L328,378.83z M328,323.46H184
	c-6.117,0-11.075,4.958-11.075,11.075c0,6.117,4.958,11.075,11.075,11.075h144c6.119-0.009,11.072-4.978,11.063-11.097
	c-0.009-6.106-4.957-11.053-11.063-11.063V323.46z M328,323.46H184c-6.117,0-11.075,4.958-11.075,11.075
	c0,6.117,4.958,11.075,11.075,11.075h144c6.119-0.009,11.072-4.978,11.063-11.097c-0.009-6.106-4.957-11.053-11.063-11.063V323.46z
	 M328,378.84H184c-6.119,0-11.08,4.961-11.08,11.08c0,6.119,4.961,11.08,11.08,11.08h144c6.122,0,11.085-4.963,11.085-11.085
	c0-6.122-4.963-11.085-11.085-11.085l0,0V378.84z M184,401h144c6.117,0.184,11.224-4.626,11.408-10.742s-4.626-11.224-10.742-11.408
	c-0.222-0.007-0.444-0.007-0.666,0H184c-6.117,0-11.075,4.958-11.075,11.075C172.925,396.042,177.883,401,184,401z M184,345.63h144
	c6.117-0.184,10.926-5.291,10.742-11.408c-0.176-5.858-4.884-10.566-10.742-10.742H184c-6.108-0.26-11.271,4.481-11.53,10.59
	c-0.26,6.108,4.481,11.271,10.59,11.53c0.314,0.013,0.627,0.013,0.941,0V345.63z M455.35,329
	c-0.038,12.217-9.933,22.112-22.15,22.15h-38.76v-66.46c-0.022-6.105-4.965-11.048-11.07-11.07H128.64
	c-6.105,0.022-11.048,4.965-11.07,11.07v66.45H78.8c-12.213-0.038-22.106-9.927-22.15-22.14V196.09
	c0.038-12.217,9.933-22.112,22.15-22.15h354.4c12.217,0.038,22.112,9.933,22.15,22.15V329z M372.29,428.68H139.71V295.76h232.58
	v132.9V428.68z M139.71,85.34h232.58v66.45H139.71V85.34z M433.2,151.79h-38.76V74.26c-0.016-6.109-4.961-11.058-11.07-11.08H128.64
	c-6.109,0.022-11.054,4.971-11.07,11.08v77.52H78.8c-24.437,0.071-44.229,19.863-44.3,44.3V329
	c0.071,24.437,19.863,44.229,44.3,44.3h38.76v66.45c0.022,6.105,4.965,11.048,11.07,11.07h254.73
	c6.105-0.022,11.048-4.965,11.07-11.07v-66.46h38.77c24.433-0.071,44.223-19.857,44.3-44.29V196.09
	C477.429,171.653,457.637,151.861,433.2,151.79z M328,378.83H184c-6.122,0-11.085,4.963-11.085,11.085
	c0,6.122,4.963,11.085,11.085,11.085h144c6.122,0,11.085-4.963,11.085-11.085C339.085,383.793,334.122,378.83,328,378.83L328,378.83
	z M184,345.6h144c6.117-0.184,10.926-5.291,10.742-11.408c-0.176-5.858-4.884-10.566-10.742-10.742H184
	c-6.117,0-11.075,4.958-11.075,11.075C172.925,340.642,177.883,345.6,184,345.6z M328,323.45H184
	c-6.117,0-11.075,4.958-11.075,11.075c0,6.117,4.958,11.075,11.075,11.075h144c6.117-0.184,10.926-5.291,10.742-11.408
	C338.566,328.334,333.858,323.626,328,323.45z M328,378.83H184c-6.122,0-11.085,4.963-11.085,11.085S177.878,401,184,401h144
	c6.122,0,11.085-4.963,11.085-11.085C339.085,383.793,334.122,378.83,328,378.83L328,378.83L328,378.83z M328,378.83H184
	c-6.122,0-11.085,4.963-11.085,11.085S177.878,401,184,401h144c6.122,0,11.085-4.963,11.085-11.085
	C339.085,383.793,334.122,378.83,328,378.83L328,378.83L328,378.83z M328,323.46H184c-6.117,0-11.075,4.958-11.075,11.075
	c0,6.117,4.958,11.075,11.075,11.075h144c6.119,0,11.08-4.961,11.08-11.08c0-6.119-4.961-11.08-11.08-11.08l0,0V323.46z M328,378.84
	H184c-6.119,0-11.08,4.961-11.08,11.08S177.881,401,184,401l0,0h144c6.122,0,11.085-4.963,11.085-11.085
	c0-6.122-4.963-11.085-11.085-11.085l0,0V378.84z M328,323.47H184c-6.117,0-11.075,4.958-11.075,11.075
	c0,6.117,4.958,11.075,11.075,11.075h144c6.122,0,11.085-4.963,11.085-11.085c0-6.122-4.963-11.085-11.085-11.085l0,0V323.47z
	 M477.5,329V196.09 M34.5,329V196.09 M455.35,329V196.09 M455.35,328.99v-132.9"/>
</svg>
