<?xml version="1.0" encoding="utf-8"?>
<!-- Generator: Adobe Illustrator 17.0.0, SVG Export Plug-In . SVG Version: 6.00 Build 0)  -->
<!DOCTYPE svg PUBLIC "-//W3C//DTD SVG 1.1//EN" "http://www.w3.org/Graphics/SVG/1.1/DTD/svg11.dtd" [
	<!ENTITY ns_extend "http://ns.adobe.com/Extensibility/1.0/">
	<!ENTITY ns_ai "http://ns.adobe.com/AdobeIllustrator/10.0/">
	<!ENTITY ns_graphs "http://ns.adobe.com/Graphs/1.0/">
	<!ENTITY ns_vars "http://ns.adobe.com/Variables/1.0/">
	<!ENTITY ns_imrep "http://ns.adobe.com/ImageReplacement/1.0/">
	<!ENTITY ns_sfw "http://ns.adobe.com/SaveForWeb/1.0/">
	<!ENTITY ns_custom "http://ns.adobe.com/GenericCustomNamespace/1.0/">
	<!ENTITY ns_adobe_xpath "http://ns.adobe.com/XPath/1.0/">
]>
<svg version="1.1" id="Layer_1" xmlns:x="&ns_extend;" xmlns:i="&ns_ai;" xmlns:graph="&ns_graphs;"
	 xmlns="http://www.w3.org/2000/svg" xmlns:xlink="http://www.w3.org/1999/xlink" x="0px" y="0px" width="512px" height="512px"
	 viewBox="0 0 512 512" enable-background="new 0 0 512 512" xml:space="preserve">
<metadata>
	<sfw  xmlns="&ns_sfw;">
		<slices></slices>
		<sliceSourceBounds  width="419.001" height="443" x="46.499" y="-477.5" bottomLeftOrigin="true"></sliceSourceBounds>
	</sfw>
</metadata>
<g>
	<path fill="#800000018000000180000001" d="M453.501,34.5H58.499c-6.627,0-12,5.373-12,12v419c0,6.627,5.373,12,12,12h331.866
		c3.158,0,6.188-1.245,8.436-3.465l63.136-62.396c2.28-2.255,3.564-5.328,3.564-8.535V46.5
		C465.501,39.873,460.128,34.5,453.501,34.5z M70.499,58.5h371.001v323.744h-59.444c-6.627,0-12,5.373-12,12V453.5H70.499V58.5z
		 M394.056,444.981v-38.737h39.195L394.056,444.981z"/>
	<rect x="132.408" y="136.886" fill="#800000018000000180000001" width="245.944" height="24"/>
	<rect x="132.408" y="182.951" fill="#800000018000000180000001" width="245.944" height="24"/>
	<rect x="132.408" y="260.299" fill="#800000018000000180000001" width="245.944" height="24"/>
	<rect x="132.408" y="306.365" fill="#800000018000000180000001" width="245.944" height="24"/>
</g>
</svg>
