<svg id="Layer_1" data-name="Layer 1" xmlns="http://www.w3.org/2000/svg" viewBox="0 0 512 512"><title>icons_MSNS</title><path d="M196.27,358A161.77,161.77,0,0,1,81.88,81.89a161.75,161.75,0,0,1,228.77,0c63.07,63.07,63.07,165.7,0,228.77A160.67,160.67,0,0,1,196.27,358Zm0-296.4a134.63,134.63,0,1,0,95.2,229.83C344,239,344,153.57,291.47,101.08A133.71,133.71,0,0,0,196.27,61.64Z"/><path d="M463.93,477.5a13.53,13.53,0,0,1-9.6-4L291.48,310.66a13.57,13.57,0,1,1,19.19-19.19L473.52,454.35A13.56,13.56,0,0,1,463.93,477.5Z"/></svg>