<svg id="Layer_1" data-name="Layer 1" xmlns="http://www.w3.org/2000/svg" viewBox="0 0 512 512"><title>icons_MSNS</title><path d="M477.47,255.18c0-.19,0-0.36,0-0.54s0-.19,0-0.27,0-.27-0.05-0.39,0-.31-0.06-0.46a0.26,0.26,0,0,1,0-.06,16.59,16.59,0,0,0-4.63-9.11c-14.13-16.75-30.94-31.66-48-45.27-36.82-29.33-78.92-53.88-125.4-63.75a209.08,209.08,0,0,0-80.9-1.12c-24.56,4.39-48.24,13.53-70.4,24.85-34.68,17.72-66.35,42.15-94,69.54-5.11,5.07-10.19,10.24-14.83,15.75-6.18,7.33-6.18,16,0,23.33,14.13,16.75,30.94,31.65,48,45.27C124,342.27,166.1,366.8,212.58,376.68a209,209,0,0,0,80.9,1.13c24.56-4.39,48.23-13.53,70.4-24.85,34.68-17.72,66.35-42.15,94-69.54,5.11-5.07,10.19-10.24,14.83-15.75a16.6,16.6,0,0,0,4.63-9.11,0.26,0.26,0,0,1,0-.06c0-.16,0-0.31.06-0.46s0-.26.05-0.39,0-.18,0-0.27,0-.35,0-0.54,0-.55,0-0.83S477.48,255.45,477.47,255.18ZM256,341.24A85.24,85.24,0,1,1,341.23,256,85.23,85.23,0,0,1,256,341.24Z"/><circle cx="256" cy="256" r="28.21"/></svg>