<?xml version="1.0" encoding="utf-8"?>
<!-- Generator: Adobe Illustrator 17.0.0, SVG Export Plug-In . SVG Version: 6.00 Build 0)  -->
<!DOCTYPE svg PUBLIC "-//W3C//DTD SVG 1.1//EN" "http://www.w3.org/Graphics/SVG/1.1/DTD/svg11.dtd" [
	<!ENTITY ns_extend "http://ns.adobe.com/Extensibility/1.0/">
	<!ENTITY ns_ai "http://ns.adobe.com/AdobeIllustrator/10.0/">
	<!ENTITY ns_graphs "http://ns.adobe.com/Graphs/1.0/">
	<!ENTITY ns_vars "http://ns.adobe.com/Variables/1.0/">
	<!ENTITY ns_imrep "http://ns.adobe.com/ImageReplacement/1.0/">
	<!ENTITY ns_sfw "http://ns.adobe.com/SaveForWeb/1.0/">
	<!ENTITY ns_custom "http://ns.adobe.com/GenericCustomNamespace/1.0/">
	<!ENTITY ns_adobe_xpath "http://ns.adobe.com/XPath/1.0/">
]>
<svg version="1.1" id="Layer_1" xmlns:x="&ns_extend;" xmlns:i="&ns_ai;" xmlns:graph="&ns_graphs;"
	 xmlns="http://www.w3.org/2000/svg" xmlns:xlink="http://www.w3.org/1999/xlink" x="0px" y="0px" width="512px" height="512px"
	 viewBox="0 0 512 512" enable-background="new 0 0 512 512" xml:space="preserve">
<metadata>
	<sfw  xmlns="&ns_sfw;">
		<slices></slices>
		<sliceSourceBounds  width="443" x="34.5" height="443" y="-478.5" bottomLeftOrigin="true"></sliceSourceBounds>
	</sfw>
</metadata>
<path fill="#010101" d="M256,478.5c-122.14,0-221.5-99.36-221.5-221.5S133.86,35.5,256,35.5S477.5,134.86,477.5,257
	S378.14,478.5,256,478.5z M256,65C150.15,65,64,151.15,64,257s86.12,192,192,192s192-86.12,192-192S361.85,65,256,65z"/>
<path fill="#010101" d="M356.19,184.46c-6.476-6.575-17.056-6.655-23.631-0.179c-0.06,0.059-0.12,0.119-0.179,0.179L226.62,293
	l-47.07-48.73c-6.476-6.575-17.056-6.655-23.631-0.179c-0.06,0.059-0.12,0.119-0.179,0.179c-6.649,6.763-6.649,17.607,0,24.37
	l59.26,60.9c6.476,6.575,17.056,6.655,23.631,0.179c0.06-0.059,0.12-0.119,0.179-0.179l117.94-120.72
	C362.952,201.799,362.708,191.188,356.19,184.46z"/>
</svg>
