<?xml version="1.0" encoding="utf-8"?>
<!-- Generator: Adobe Illustrator 17.0.0, SVG Export Plug-In . SVG Version: 6.00 Build 0)  -->
<!DOCTYPE svg PUBLIC "-//W3C//DTD SVG 1.1//EN" "http://www.w3.org/Graphics/SVG/1.1/DTD/svg11.dtd">
<svg version="1.1" id="Layer_1" xmlns="http://www.w3.org/2000/svg" xmlns:xlink="http://www.w3.org/1999/xlink" x="0px" y="0px"
	 width="512px" height="512px" viewBox="0 0 512 512" enable-background="new 0 0 512 512" xml:space="preserve">
<g>
	<path d="M477.28,78.8c0.033-24.394-19.686-44.212-44.08-44.3H78.8c-24.434,0.077-44.223,19.866-44.3,44.3v265.8
		c0.071,24.437,19.863,44.229,44.3,44.3h310.1l88.6,88.6L477.28,78.8z M356.05,230.45c0,0.09,0,0.14,0,0.2v0.15
		c0.014,0.096,0.014,0.194,0,0.29c0,0.14,0,0.29,0,0.46c-0.001,0.151-0.017,0.302-0.05,0.45v0.29c-0.014,0.049-0.014,0.101,0,0.15
		c0.015,0.076,0.015,0.154,0,0.23c0.013,0.079,0.013,0.161,0,0.24c-0.284,1.891-1.163,3.642-2.51,5c-2.54,3-5.28,5.78-8,8.55
		c-15,14.85-32.18,28.1-51,37.72c-12,6.16-24.86,11.12-38.19,13.48c-14.535,2.663-29.45,2.466-43.91-0.58
		c-25.23-5.37-48.07-18.7-68.06-34.6c-9.27-7.41-18.4-15.49-26.08-24.57c-3.35-4-3.35-8.69,0-12.66c2.54-3,5.28-5.8,8.06-8.54
		c15-14.88,32.17-28.13,51-37.75c12-6.16,24.88-11.12,38.19-13.48c14.532-2.674,29.448-2.466,43.9,0.61
		c25.23,5.34,48.08,18.67,68.06,34.6c9.28,7.38,18.41,15.46,26.08,24.56c1.334,1.339,2.212,3.064,2.51,4.93
		C356.05,230.27,356.05,230.36,356.05,230.45z M442.855,145.962h-35v35h-40.689h-0.001v-35h-32.999h-0.001v-38.72h0.001h32.999v-35
		h0.001h40.689v35h35V145.962z"/>
	<path d="M235.85,185.31c-0.007,0-0.013,0-0.02,0c-25.543,0.006-46.246,20.717-46.24,46.26c0.006,25.543,20.717,46.246,46.26,46.24
		c25.535-0.006,46.234-20.705,46.24-46.24C282.096,206.027,261.393,185.316,235.85,185.31z M235.83,246.86
		c-8.45-0.006-15.296-6.86-15.29-15.31c0.006-8.45,6.86-15.296,15.31-15.29c8.45,0.006,15.296,6.86,15.29,15.31
		S244.28,246.866,235.83,246.86z"/>
</g>
</svg>
