<svg xmlns="http://www.w3.org/2000/svg" viewBox="0 0 512 512">
<path d="M408.91,38H103.64A68.83,68.83,0,0,0,34.5,107V292.59a68.83,68.83,0,0,0,69.14,69h38.13l0.56,34.78L143.59,474l51.27-58.29,47.59-54.11H408.35a68.83,68.83,0,0,0,69.14-69V107.34a67.15,67.15,0,0,0-19.23-48.53A69.29,69.29,0,0,0,408.91,38h0Z"/><path
        fill="#ffffff"
        d="M360.44,204.37v0.25a0.22,0.22,0,0,0,0,.13,0.57,0.57,0,0,1,0,.2,0.62,0.62,0,0,1,0,.2v0a7.8,7.8,0,0,1-2.18,4.31c-2.21,2.59-4.59,5-7,7.43-13,12.9-28,24.41-44.31,32.78-10.45,5.35-21.6,9.66-33.19,11.71a98.59,98.59,0,0,1-38.15-.51c-21.93-4.66-41.78-16.25-59.15-30.07a161.31,161.31,0,0,1-22.66-21.35,8,8,0,0,1,0-11c2.21-2.61,4.59-5,7-7.43,13-12.93,28-24.44,44.32-32.8,10.44-5.35,21.62-9.66,33.19-11.71a98.11,98.11,0,0,1,38.15.53c21.93,4.64,41.78,16.23,59.15,30.07a158.39,158.39,0,0,1,22.66,21.35,7.73,7.73,0,0,1,2.18,4.28v0c0,0.08,0,.15,0,0.23s0,0.13,0,.18v0.13a0.94,0.94,0,0,1,0,.25c0,0.13,0,.25,0,0.41A2,2,0,0,1,360.44,204.37Z"/><path d="M256,163.78A40.19,40.19,0,1,0,296.2,204,40.2,40.2,0,0,0,256,163.78Zm0,53.49A13.3,13.3,0,1,1,269.3,204,13.3,13.3,0,0,1,256,217.27Z"/><rect fill="#ffffff" x="393.68" y="76.32" width="16.17" height="80.31"/><rect fill="#ffffff" x="361.61" y="108.39" width="80.31" height="16.17"/></svg>
