<?xml version="1.0" encoding="utf-8"?>
<svg version="1.1" id="loader" xmlns="http://www.w3.org/2000/svg" xmlns:xlink="http://www.w3.org/1999/xlink" width="96px" height="96px" x="0px" y="0px" preserveAspectRatio="xMidYMid" viewBox="0 0 100 100" enable-background="new 0 0 100 100" xml:space="preserve">
	<circle fill="#ffffff" cx="50" cy="50" r="40"/>
	<g transform="translate(-8, -8)">
		<g transform="scale(1.2 1.2)">
			<path fill="#9BCD5F" d="M48.1,30.5h-0.1c-1.8,0-3.3,1.5-3.3,3.3v0.6C40.2,35.8,37,40,37,44.8v9.3c0,0.5-0.4,0.8-0.8,0.8h0h0
				c-1.8,0-3.3,1.5-3.3,3.3v0.1c0,1.8,1.5,3.3,3.3,3.3h7.9c0.2,2.1,1.9,3.8,4,3.8h0.1c2.1,0,3.8-1.7,4-3.8h8.1c1.8,0,2.9-1.3,2.9-3.3
				v-0.1c0-2-1.2-3.3-2.9-3.3h0h0c-0.5,0-0.8-0.4-0.8-0.8v-9.2c0-5-3.4-9.3-8-10.6v-0.5C51.4,32,49.9,30.5,48.1,30.5z M46.3,33.8
				c0-0.9,0.7-1.6,1.6-1.6h0.1c0.9,0,1.6,0.7,1.6,1.6V34c-0.5-0.1-0.9-0.1-1.4-0.1H48c-0.6,0-1.1,0-1.7,0.1V33.8z M48.1,63.8
				L48.1,63.8c-1.2,0-2.2-1-2.4-2.1h4.7C50.3,62.8,49.3,63.8,48.1,63.8z M60.2,56.6L60.2,56.6c1.1,0,1.3,1.2,1.3,1.7v0.1
				c0,0.5-0.1,1.7-1.2,1.7h-9h-6.4h-8.7c-0.9,0-1.7-0.7-1.7-1.7v-0.1c0-0.9,0.7-1.7,1.7-1.7h0h0H60.2L60.2,56.6z M57.7,44.9v9.2
				c0,0.3,0.1,0.6,0.1,0.8H38.6c0.1-0.3,0.1-0.5,0.1-0.8v-9.3c0-5.1,4.2-9.3,9.3-9.3h0.3C53.5,35.6,57.7,39.8,57.7,44.9z"/>

			<animateTransform attributeName="transform" type="scale" from="0 0" to="1.2 1.2" repeatCount="1" dur="1s"/>
		</g>

		<animateTransform attributeName="transform" type="translate" from="48 48" to="-8 -8" begin="0s" dur="1s" repeatCount="1"/>
	</g>
	<circle cx="50" cy="50" r="40" stroke="#E0E0E0" fill="none" stroke-width="10" stroke-linecap="round"/>
	<circle cx="50" cy="50" r="40" stroke="#9BCD5F" fill="none" stroke-width="10" stroke-linecap="round">
		<animate attributeName="stroke-dashoffset"  begin="0s" dur="2s" repeatCount="indefinite" from="0" to="500"/>
		<animate attributeName="stroke-dasharray"  begin="0s" dur="2s" repeatCount="indefinite" values="50.2 200.8;1 250;50.2 200.8"/>
	</circle>
</svg>
