<?xml version="1.0" encoding="utf-8"?>
<svg version="1.1" id="loader" xmlns="http://www.w3.org/2000/svg" xmlns:xlink="http://www.w3.org/1999/xlink" width="96px" height="96px" x="0px" y="0px" preserveAspectRatio="xMidYMid" viewBox="0 0 100 100" enable-background="new 0 0 100 100" xml:space="preserve">
<circle fill="#ffffff" cx="50" cy="50" r="40"/>
<g>
	<g transform="translate(14, 14) scale(2)">
		<path
			fill="#9BCC60"
			d="M26.3,13.3h-3.8V9.4c0-0.5-0.4-0.8-0.8-0.8c0,0,0,0,0,0h-7.1c-0.5,0-0.8,0.4-0.8,0.8v3.8H9.8
  		c-0.5,0-0.8,0.4-0.8,0.8v7.1c0,0.5,0.4,0.8,0.8,0.8h3.8v3.8c0,0.5,0.4,0.8,0.8,0.8h7.1c0.5,0,0.8-0.4,0.8-0.8v-3.8h3.8
  		c0.5,0,0.8-0.4,0.8-0.8v-7.1C27.2,13.6,26.8,13.3,26.3,13.3z M15.1,17.7c0.3,0.2,0.5,0.5,0.6,0.7c0,0.1-0.5,0-0.5-0.1
  		c-0.1-0.2-0.2-0.4-0.3-0.6C14.7,17.6,14.8,17.5,15.1,17.7z M14,17.1c0.5,0.3,0.8,0.9,0.9,1.2c-0.3-0.1-0.5-0.3-0.7-0.6
  		c-0.4-0.4-0.7-0.6-0.8-0.6C13.3,17,13.5,16.8,14,17.1z M12,16.7c0.3-0.1,0.8,0,1.5,0.7c0.4,0.3,0.6,0.6,0.6,0.6s-0.9-0.4-1.4-0.7
  		l-0.9-0.5C11.9,16.8,11.7,16.7,12,16.7z M24.8,18c-0.7,0.2-1.7,0.8-2.4,1.2c-0.7,0.4-2.5,1.6-3.4,1.7c-0.9,0.2-1.9,0.1-2.8-0.3
  		c0,0-2-1.2-3.2-2c-1.2-0.9-2.3-1.6-2.6-1.9c-0.3-0.3-0.1-0.5,0.5-0.2s2.7,1.6,3.6,1.9c0.9,0.3,2.5,0.4,3.3,0.1
  		c0.8-0.2,1.4-0.5,0.3-0.8c-1-0.3-1.6-0.4-2.3-0.7c-0.6-0.3-0.9-0.6,0.2-0.5s2.3,0.3,3.6,0c1.3-0.3,3.8-0.9,6.3,1.3
  		C25.7,17.9,25.2,17.9,24.8,18z"/>
		<path
			fill="#FFFFFF"
			d="M19.7,16.6c-1.3,0.3-2.4,0.1-3.6,0s-0.9,0.2-0.2,0.5c0.6,0.3,1.2,0.4,2.3,0.7c1,0.3,0.4,0.5-0.3,0.8
  		c-0.8,0.2-2.4,0.2-3.3-0.1c-0.9-0.3-3-1.6-3.6-1.9s-0.8-0.1-0.5,0.2c0.3,0.3,1.3,1,2.6,1.9c1.2,0.9,3.2,2,3.2,2
  		c0.9,0.4,1.9,0.5,2.8,0.3c0.9-0.2,2.7-1.4,3.4-1.7c0.7-0.4,1.6-1,2.4-1.2c0.4-0.1,0.8-0.1,1.2-0.1C23.5,15.7,21,16.3,19.7,16.6z"/>
		<path fill="#FFFFFF" d="M11.9,16.8l0.9,0.5c0.5,0.3,1.4,0.7,1.4,0.7s-0.2-0.3-0.6-0.6c-0.7-0.7-1.2-0.8-1.5-0.7
  		C11.7,16.7,11.9,16.8,11.9,16.8z"/>
		<path fill="#FFFFFF" d="M13.4,17.1c0.1,0,0.4,0.2,0.8,0.6c0.2,0.2,0.4,0.4,0.7,0.6c-0.1-0.3-0.4-0.9-0.9-1.2
  		C13.5,16.8,13.3,17,13.4,17.1z"/>
		<path fill="#FFFFFF" d="M15.2,18.3c0.1,0.1,0.6,0.2,0.5,0.1c-0.1-0.3-0.4-0.6-0.6-0.7c-0.3-0.2-0.3-0.1-0.2,0
  		C15,17.9,15.1,18.1,15.2,18.3z"/>

		<animateTransform attributeName="transform" type="scale" from="0" to="2" repeatCount="0" dur="1s"/>
	</g>

	<animateTransform attributeName="transform" type="translate" from="48 48" to="14 14" begin="0s" dur="1s" repeatCount="0"/>
</g>
<circle cx="50" cy="50" r="40" stroke="#E0E0E0" fill="none" stroke-width="10" stroke-linecap="round"></circle>
<circle cx="50" cy="50" r="40" stroke="#9BCD5F" fill="none" stroke-width="10" stroke-linecap="round">
	<animate attributeName="stroke-dashoffset"  begin="0s" dur="2s" repeatCount="indefinite" from="0" to="500"/>
	<animate attributeName="stroke-dasharray"  begin="0s" dur="2s" repeatCount="indefinite" values="50.2 200.8;1 250;50.2 200.8"/>
</circle>
</svg>
