<?xml version="1.0" encoding="utf-8"?>
<!-- Generator: Adobe Illustrator 19.1.0, SVG Export Plug-In . SVG Version: 6.00 Build 0)  -->
<svg version="1.1" id="Layer_1" xmlns="http://www.w3.org/2000/svg" xmlns:xlink="http://www.w3.org/1999/xlink" x="0px" y="0px"
	 viewBox="0 0 36 36" enable-background="new 0 0 36 36" xml:space="preserve">
<g id="icon">
	<path fill="#9BCC60" d="M33.2,9.9h-7v-7c0-0.9-0.7-1.6-1.6-1.6c0,0,0,0,0,0H11.4c-0.9,0-1.6,0.7-1.6,1.6v0v7h-7
		c-0.9,0-1.6,0.7-1.6,1.6c0,0,0,0,0,0v13.1c0,0.9,0.7,1.6,1.6,1.6c0,0,0,0,0,0h7v7c0,0.9,0.7,1.6,1.6,1.6l0,0h13.1
		c0.9,0,1.6-0.7,1.6-1.6l0,0v-7h7c0.9,0,1.6-0.7,1.6-1.6l0,0V11.4C34.7,10.6,34,9.9,33.2,9.9L33.2,9.9z"/>
	<g>
		<path fill="#FFFFFF" d="M32.7,18.5c-0.7-0.1-1.5-0.1-2.2,0.1c-1.4,0.3-3.2,1.6-4.4,2.2c-1.2,0.7-4.6,2.9-6.2,3.2
			c-1.7,0.4-3.6,0.2-5.2-0.5c0,0-3.7-2.2-6-3.7c-2.3-1.6-4.3-2.9-4.8-3.4c-0.5-0.5-0.3-1,1-0.4c1.2,0.5,5,2.9,6.7,3.5
			c1.6,0.6,4.6,0.7,6,0.3c1.4-0.4,2.6-0.9,0.6-1.4s-3-0.8-4.1-1.3c-1.1-0.5-1.6-1.2,0.5-1c2.1,0.2,4.2,0.6,6.5,0
			C23.4,15.5,28,14.4,32.7,18.5z"/>
		<path fill="#FFFFFF" d="M10.8,18.6c0,0-1.6-0.8-2.5-1.3l-1.7-0.9c0,0-0.3-0.1,0.3-0.2c0.5-0.1,1.5,0.1,2.8,1.3
			C10.4,18.1,10.8,18.6,10.8,18.6z"/>
		<path fill="#FFFFFF" d="M12.1,19.1c-0.5-0.3-0.9-0.6-1.3-1c-0.7-0.8-1.2-1.2-1.4-1.2c-0.2,0,0.2-0.5,1.1,0.1
			C11.4,17.5,11.9,18.6,12.1,19.1z"/>
		<path fill="#FFFFFF" d="M12.6,19.2c-0.2-0.4-0.4-0.7-0.6-1.1c-0.2-0.3-0.1-0.4,0.4-0.1c0.5,0.4,0.9,0.8,1.1,1.4
			C13.7,19.6,12.8,19.4,12.6,19.2z"/>
	</g>
</g>
</svg>
