<?xml version="1.0" encoding="UTF-8" standalone="no"?>
<svg id="loader"
	xmlns:svg="http://www.w3.org/2000/svg"
   xmlns="http://www.w3.org/2000/svg"
   xmlns:xlink="http://www.w3.org/1999/xlink"
   width="48"
   height="48"
   viewBox="-24 -24 48 48"
   version="1.1">
  <g >
    <g stroke-width="5" stroke-linecap="round" stroke="rgb(0, 0, 0)">
      <line x1="0" y1="11" x2="0" y2="18" transform="rotate(0, 0, 0)" opacity="1"></line>
      <line x1="0" y1="11" x2="0" y2="18" transform="rotate(30, 0, 0)" opacity="0.9173553719008265"></line>
      <line x1="0" y1="11" x2="0" y2="18" transform="rotate(60, 0, 0)" opacity="0.8347107438016529"></line>
      <line x1="0" y1="11" x2="0" y2="18" transform="rotate(90, 0, 0)" opacity="0.7520661157024794"></line>
      <line x1="0" y1="11" x2="0" y2="18" transform="rotate(120, 0, 0)" opacity="0.6694214876033058"></line>
      <line x1="0" y1="11" x2="0" y2="18" transform="rotate(150, 0, 0)" opacity="0.5867768595041323"></line>
      <line x1="0" y1="11" x2="0" y2="18" transform="rotate(180, 0, 0)" opacity="0.5041322314049588"></line>
      <line x1="0" y1="11" x2="0" y2="18" transform="rotate(210, 0, 0)" opacity="0.42148760330578516"></line>
      <line x1="0" y1="11" x2="0" y2="18" transform="rotate(240, 0, 0)" opacity="0.33884297520661155"></line>
      <line x1="0" y1="11" x2="0" y2="18" transform="rotate(270, 0, 0)" opacity="0.25619834710743805"></line>
      <line x1="0" y1="11" x2="0" y2="18" transform="rotate(300, 0, 0)" opacity="0.17355371900826455"></line>
      <line x1="0" y1="11" x2="0" y2="18" transform="rotate(330, 0, 0)" opacity="0.09090909090909094"></line>
    </g>
	<animateTransform attributeName="transform" attributeType="XML"
  	type="rotate" begin="0s" dur="0.8" repeatCount="indefinite"
  	calcMode="discrete"
    values="0; 30; 60; 90; 120; 150; 180; 210; 240; 270; 300; 330; 360" />
  </g> 
	<!--<g>
        <animateTransform attributeName="transform" type="rotate" 
           values="0; 30; 60; 90; 120; 150; 180; 210; 240; 270; 300; 330"
           dur="8s" calcMode="discrete" repeatCount="indefinite" />

        <rect fill="#404040" x="7.062" y="3.625" width="1.875" height="8.75"/>
    </g> -->

</svg>
