<?xml version="1.0" encoding="utf-8"?>
<!-- Generator: Adobe Illustrator 19.1.0, SVG Export Plug-In . SVG Version: 6.00 Build 0)  -->
<svg version="1.1" id="Layer_1" xmlns="http://www.w3.org/2000/svg" xmlns:xlink="http://www.w3.org/1999/xlink" x="0px" y="0px"
	 viewBox="0 0 125 35" enable-background="new 0 0 125 35" xml:space="preserve">
<g id="site-logo">
	<g id="text">
		<polygon fill="#FFFFFF" points="54.5,16.1 49,6.2 45.3,6.2 45.3,27.7 48.8,27.7 48.8,12.6 54.5,22.5 54.5,22.5 60.3,12.5 
			60.3,27.7 63.8,27.7 63.8,6.2 60,6.2 		"/>
		<path fill="#FFFFFF" d="M77.6,15.4c-3.7-1.4-4.5-2.2-4.5-3.7v0c0-1.4,1.2-2.5,3.1-2.5c1.7,0,3.4,0.8,4.8,2l2-2.7
			c-1.9-1.7-4.3-2.6-6.8-2.5c-4,0-6.8,2.5-6.8,6V12c0,3.4,2.1,5,6.2,6.5c3.4,1.3,4.1,2.2,4.1,3.5v0c0,1.6-1.3,2.7-3.4,2.7
			c-2.3,0-4-1.1-5.6-2.6l-2.2,2.7c2.1,2,4.9,3.1,7.7,3.1c4,0,7-2.4,7-6.2v-0.1C83.5,18.6,81.6,16.9,77.6,15.4z"/>
		
			<line fill="none" stroke="#FFFFFF" stroke-width="0" stroke-linecap="round" stroke-linejoin="round" x1="89" y1="6.2" x2="89" y2="6.2"/>
		<polygon fill="#FFFFFF" points="101.8,20.6 92.3,6.2 89,6.2 89,27.7 92.5,27.7 92.5,13 102.3,27.7 105.3,27.7 105.3,6.2 
			101.8,6.2 		"/>
		<path fill="#FFFFFF" d="M119.2,15.4c-3.7-1.4-4.5-2.2-4.5-3.7v0c0-1.4,1.2-2.5,3.1-2.5c1.7,0,3.4,0.8,4.8,2l2-2.7
			c-1.9-1.7-4.3-2.6-6.8-2.5c-4,0-6.8,2.5-6.8,6V12c0,3.4,2.1,5,6.2,6.5c3.4,1.3,4.1,2.2,4.1,3.5v0c0,1.6-1.3,2.7-3.4,2.7
			c-2.3,0-4-1.1-5.6-2.6l-2.2,2.7c2.1,2,4.9,3.1,7.7,3.1c4,0,7-2.4,7-6.2v-0.1C125,18.6,123.2,16.9,119.2,15.4z"/>
	</g>
	<g id="icon">
		<path fill="#9BCC60" d="M31.9,9.4h-7v-7c0-0.9-0.7-1.6-1.6-1.6c0,0,0,0,0,0H10.2c-0.9,0-1.6,0.7-1.6,1.6v0v7h-7
			C0.7,9.4,0,10.1,0,10.9c0,0,0,0,0,0v13.1c0,0.9,0.7,1.6,1.6,1.6c0,0,0,0,0,0h7v7c0,0.9,0.7,1.6,1.6,1.6l0,0h13.1
			c0.9,0,1.6-0.7,1.6-1.6l0,0v-7h7c0.9,0,1.6-0.7,1.6-1.6l0,0V10.9C33.4,10.1,32.7,9.4,31.9,9.4L31.9,9.4z"/>
		<g>
			<path fill="#FFFFFF" d="M31.4,18c-0.7-0.1-1.5-0.1-2.2,0.1c-1.4,0.3-3.2,1.6-4.4,2.2c-1.2,0.7-4.6,2.9-6.2,3.2
				c-1.7,0.4-3.6,0.2-5.2-0.5c0,0-3.7-2.2-6-3.7c-2.3-1.6-4.3-2.9-4.8-3.4c-0.5-0.5-0.3-1,1-0.4c1.2,0.5,5,2.9,6.7,3.5
				c1.6,0.6,4.6,0.7,6,0.3s2.6-0.9,0.6-1.4s-3-0.8-4.1-1.3c-1.1-0.5-1.6-1.2,0.5-1c2.1,0.2,4.2,0.6,6.5,0C22.1,15,26.7,13.9,31.4,18
				z"/>
			<path fill="#FFFFFF" d="M9.5,18.1c0,0-1.6-0.8-2.5-1.3l-1.7-0.9c0,0-0.3-0.1,0.3-0.2s1.5,0.1,2.8,1.3C9.1,17.6,9.5,18.1,9.5,18.1
				z"/>
			<path fill="#FFFFFF" d="M10.8,18.6c-0.5-0.3-0.9-0.6-1.3-1c-0.7-0.8-1.2-1.2-1.4-1.2c-0.2,0,0.2-0.5,1.1,0.1
				C10.1,17,10.6,18.1,10.8,18.6z"/>
			<path fill="#FFFFFF" d="M11.4,18.7c-0.2-0.4-0.4-0.7-0.6-1.1c-0.2-0.3-0.1-0.4,0.4-0.1c0.5,0.4,0.9,0.8,1.1,1.4
				C12.4,19.1,11.5,18.9,11.4,18.7z"/>
		</g>
	</g>
</g>
</svg>
